<?xml version="1.0" encoding="UTF-8"?>
<svg width="128" height="128" version="1.1" viewBox="0 0 128 128" xmlns="http://www.w3.org/2000/svg" xmlns:xlink="http://www.w3.org/1999/xlink">
 <defs>
  <radialGradient id="q" cx="118.17" cy="9.1196" r="1.2844" gradientTransform="matrix(1.2088 .95832 -1.4021 1.7686 -11.996 -120.41)" gradientUnits="userSpaceOnUse" xlink:href="#a"/>
  <linearGradient id="a">
   <stop stop-color="#fff" offset="0"/>
   <stop stop-color="#fff" stop-opacity="0" offset="1"/>
  </linearGradient>
  <filter id="m">
   <feGaussianBlur stdDeviation="0.10453397"/>
  </filter>
  <radialGradient id="o" cx="118.17" cy="9.1196" r="1.2844" gradientTransform="matrix(1.2088 .95832 -1.4021 1.7686 -11.096 -120.71)" gradientUnits="userSpaceOnUse" xlink:href="#a"/>
  <linearGradient id="b">
   <stop offset="0"/>
   <stop stop-opacity="0" offset="1"/>
  </linearGradient>
  <clipPath id="bh">
   <rect x="12" y="12" width="8" height="12" rx="1.0793" ry="1.0793" opacity=".18359"/>
  </clipPath>
  <filter id="n" x="-.14667" y="-.10154" width="1.2933" height="1.2031">
   <feGaussianBlur stdDeviation="0.55"/>
  </filter>
  <radialGradient id="s" cx="16" cy="18" r="4" gradientTransform="matrix(1,0,0,1.5,0,-9)" gradientUnits="userSpaceOnUse">
   <stop stop-color="#7a7a7a" offset="0"/>
   <stop stop-opacity=".49091" offset="1"/>
  </radialGradient>
  <linearGradient id="ad" x1="16" x2="16" y1="1.5953" y2="18.755" gradientUnits="userSpaceOnUse" xlink:href="#b"/>
  <clipPath id="bi">
   <rect x="12" y="12" width="8" height="12" rx="1.0793" ry="1.0793" opacity=".18359"/>
  </clipPath>
  <radialGradient id="r" cx="14" cy="19.7" r="2.15" fy="18.836" gradientTransform="matrix(1.1063 0 0 1.1063 .54709 -2.2994)" gradientUnits="userSpaceOnUse">
   <stop stop-color="#868385" offset="0"/>
   <stop stop-color="#4a4949" offset="1"/>
  </radialGradient>
  <linearGradient id="ab" x1="11.918" x2="11.918" y1="17.561" y2="20.038" gradientTransform="matrix(1.1063 0 0 1.1063 .54709 -2.2994)" gradientUnits="userSpaceOnUse">
   <stop stop-color="#fff" offset="0"/>
   <stop offset="1"/>
  </linearGradient>
  <filter id="bd">
   <feGaussianBlur stdDeviation="0.04177847"/>
  </filter>
  <linearGradient id="z" x1="64" x2="56" y1="120.07" y2="96.316" gradientTransform="matrix(.96415 0 0 .97418 -7.7132 6.9877)" gradientUnits="userSpaceOnUse">
   <stop stop-color="#8a8a8a" offset="0"/>
   <stop stop-color="#c6c6c6" offset="1"/>
  </linearGradient>
  <linearGradient id="aa" x1="-37.195" x2="-12.625" y1="42.336" y2="106.8" gradientTransform="translate(126.8)" gradientUnits="userSpaceOnUse" xlink:href="#a"/>
  <filter id="bb">
   <feGaussianBlur stdDeviation="0.0231875"/>
  </filter>
  <radialGradient id="bl" cx="104.09" cy="9" r=".46875" gradientTransform="matrix(1 0 0 .8 -80.464 1.9105)" gradientUnits="userSpaceOnUse" xlink:href="#a"/>
  <filter id="l">
   <feGaussianBlur stdDeviation="0.025961538"/>
  </filter>
  <radialGradient id="bn" cx="104.09" cy="9" r=".46875" gradientTransform="matrix(1 0 0 .8 -.5 1.91)" gradientUnits="userSpaceOnUse" xlink:href="#a"/>
  <linearGradient id="w" x1="68" x2="36" y1="120" y2="84" gradientUnits="userSpaceOnUse" xlink:href="#b"/>
  <filter id="ba" x="-.12385" y="-.092885" width="1.2477" height="1.1858">
   <feGaussianBlur stdDeviation="1.2384615"/>
  </filter>
  <radialGradient id="bj" cx="84" cy="91.983" r="32" gradientTransform="matrix(.96415 0 0 .59877 -7.7132 44.77)" gradientUnits="userSpaceOnUse" xlink:href="#a"/>
  <linearGradient id="t" x1="47.609" x2="47.609" y1="104.35" y2="176.35" gradientUnits="userSpaceOnUse" xlink:href="#b"/>
  <clipPath id="bf">
   <path d="m18.19 132.42c-1.4192 0-2.5625 1.1433-2.5625 2.5625v37.183h72v-37.183c0-1.4192-1.1433-2.5625-2.5625-2.5625z" fill-opacity=".12832"/>
  </clipPath>
  <filter id="aw" x="-.069006" y="-.12026" width="1.138" height="1.2405">
   <feGaussianBlur stdDeviation="1.9228365"/>
  </filter>
  <linearGradient id="u" x1="107.06" x2="107.06" y1="-26.263" y2="134.55" gradientTransform="matrix(.96415 0 0 .96415 1.3498 8.8293)" gradientUnits="userSpaceOnUse" xlink:href="#a"/>
  <linearGradient id="v" x1="69.913" x2="70.02" y1="-96.5" y2="-67.843" gradientTransform="translate(0,131.41)" gradientUnits="userSpaceOnUse" xlink:href="#a"/>
  <filter id="j">
   <feGaussianBlur stdDeviation="0.11145486"/>
  </filter>
  <clipPath id="be">
   <path d="m11.375-167.68c-2.9534 0-3.375 0.36407-3.375 3.3438v0.78125c0-2.9797 0.42155-3.3125 3.375-3.3125h105.25c2.9534 0 3.375 0.33282 3.375 3.3125v-0.78125c0-2.9797-0.42155-3.3438-3.375-3.3438z" fill="url(#linearGradient3219)"/>
  </clipPath>
  <filter id="az" x="-.007141" y="-.22689" width="1.0143" height="1.4538">
   <feGaussianBlur stdDeviation="0.33324519"/>
  </filter>
  <radialGradient id="bm" cx="64.802" cy="63.781" r="34.041" gradientTransform="matrix(1.1398 0 0 .010707 -9.08 63.1)" gradientUnits="userSpaceOnUse">
   <stop stop-color="#fff" offset="0"/>
   <stop stop-color="#fff" stop-opacity=".69818" offset=".5"/>
   <stop stop-color="#fff" stop-opacity="0" offset="1"/>
  </radialGradient>
  <filter id="ae" x="-.0060582" y="-.6241" width="1.0121" height="2.2482">
   <feGaussianBlur stdDeviation="0.18955201"/>
  </filter>
  <radialGradient id="p" cx="100.31" cy="42.449" r="38" gradientTransform="matrix(4.4066 7.0044e-7 -2.8776e-7 1.7903 -409.4 -73.432)" gradientUnits="userSpaceOnUse">
   <stop stop-color="#d0ced9" offset="0"/>
   <stop stop-color="#ecf1f9" offset=".25"/>
   <stop stop-color="#fff" offset=".5"/>
   <stop stop-color="#c6d5e3" offset="1"/>
  </radialGradient>
  <clipPath id="bg">
   <rect x="24.681" y="-68.245" width="78.124" height="55.396" rx="1.1339" ry="1.1339" fill="none" opacity=".26562" stroke="#000" stroke-dashoffset="4.15" stroke-linecap="round" stroke-linejoin="round" stroke-width=".4"/>
  </clipPath>
  <filter id="bc">
   <feGaussianBlur stdDeviation="0.66759571"/>
  </filter>
  <linearGradient id="y" x1="-97.743" x2="-97.743" y1="1938" y2="1895.4" gradientTransform="matrix(2.4682 0 0 2.4901 298.11 -4703.9)" gradientUnits="userSpaceOnUse">
   <stop stop-color="#2e2a2b" offset="0"/>
   <stop stop-color="#4c494a" offset=".33498"/>
   <stop stop-color="#5b595a" offset=".66749"/>
   <stop stop-color="#6b696a" offset="1"/>
  </linearGradient>
  <filter id="ay" x="-.070976" y="-.7965" width="1.142" height="2.593">
   <feGaussianBlur stdDeviation="2.9868914"/>
  </filter>
  <radialGradient id="bk" cx="28.481" cy="164.13" r="52.145" gradientTransform="matrix(5.4916 -.11504 .0026103 .1246 -128.37 104.83)" gradientUnits="userSpaceOnUse" xlink:href="#b"/>
  <filter id="ax" x="-.023358" y="-.18741" width="1.0467" height="1.3748">
   <feGaussianBlur stdDeviation="1.0149838"/>
  </filter>
 </defs>
 <g id="x" transform="translate(20.015 -15.964)">
  <path transform="matrix(.96415 0 0 .96415 -7.7132 8.2508)" d="m16 121h14v-1h58.2v1h27.8v-4l-103.29-6.9977z" fill="url(#bk)" fill-rule="evenodd" filter="url(#ax)" stroke-width="1.2613"/>
  <path transform="matrix(.96415 0 0 .96415 -7.7132 8.2508)" d="m16 121h14v-1h60v1h29v-4l-106.29-0.99772z" fill-rule="evenodd" filter="url(#ay)" stroke="#000" stroke-width="1.0372px"/>
  <path d="m3.1817 15.964c-1.744 0-3.2406 1.5671-3.2396 3.2075v95.385l10.259 10.272h94.486c2.8476 0 3.2394-0.33472 3.2394-3.2073v-102.45c0-1.748-1.5022-3.2075-3.2394-3.2075z" fill="url(#y)"/>
  <path transform="matrix(.96415 0 0 .96415 -7.7132 8.2508)" d="m11.4 8.6c-2.0564 0.10719-3.375 0.70528-3.375 3.3125v0.59375c0-2.9797 1.4216-3.3125 4.375-3.3125h103.25c2.9535 0 4.375 0.33282 4.375 3.3125v-0.59375c0-2.9797-1.4215-3.3125-4.375-3.3125h-103.25c-0.3691 0-0.7062-0.0153-1 0z" fill="#fff" fill-opacity=".46903" filter="url(#j)" stroke-width="1.2613"/>
  <path transform="matrix(.96415 0 0 .96415 -7.7132 8.2508)" d="m104.3 8.63c-0.1011 0-0.1884 0.0369-0.2812 0.0625-0.1043 0.0288-0.1916 0.0687-0.2813 0.125-0.085 0.0537-0.1503 0.1133-0.2187 0.1875-0.029 0.031-0.069 0.0597-0.094 0.0937-0.034 0.0406-0.065 0.0806-0.094 0.125-0.093 0.16901-0.1563 0.35712-0.1563 0.5625v51.375h0.4063v-51.375c0-0.21142 0.089-0.39008 0.1875-0.5625h11.906c2.9535 0 4.375 0.33282 4.375 3.3125v-0.59375c0-2.6072-1.3157-3.1768-3.375-3.2812h-12.125c0.054-8e-3 0.1004-0.0312 0.1563-0.0312zm-93.219 0.0312c-1.6252 0.15371-2.962 0.77436-3 2.875 0.121-2.0599 1.7595-2.3125 4.3437-2.3125h12c0.1066 0.1773 0.1563 0.37327 0.1563 0.59375v51.375h0.4062v-51.375c0-0.22048-0.05-0.41645-0.1562-0.59375-0.045-0.0753-0.096-0.15599-0.1563-0.21875-0.094-0.10558-0.2187-0.19086-0.3437-0.25-0.1164-0.055-0.2345-0.0937-0.375-0.0937h-0.5zm-3 2.875c0 0.13474-0.031 0.25892-0.031 0.40625v0.59375c0-0.37246 0.014-0.70573 0.031-1z" fill="url(#v)" filter="url(#j)" opacity=".26953" stroke-width="1.2613"/>
  <path d="m103.55 16.542c2.8475 0 3.6397 0.32089 3.6397 3.1937v99.577c0 2.8726-2.7204 5.122-5.568 5.122h0.69293c2.8476 0 5.1522-2.2494 5.1522-5.122v-99.577c0-2.8729-0.37631-3.1937-3.2239-3.1937z" fill="url(#u)"/>
  <path transform="matrix(.96415 0 0 .96415 8.0988 -42.222)" d="m16.781 130.44c-1.483 0-2.6562 1.2046-2.6562 2.6875v42.031c0 1.483 1.1733 2.6562 2.6562 2.6562h0.15625c-0.40777-0.44637-0.6875-1.0318-0.6875-1.6875v-39.969c0-1.3913 1.112-2.5312 2.5-2.5312h65.594c1.388 0 2.5 1.1399 2.5 2.5312v39.969c2e-6 0.65574-0.24848 1.2411-0.65625 1.6875h0.125c1.483 0 2.6875-1.1733 2.6875-2.6562v-42.031c0-1.483-1.2045-2.6875-2.6875-2.6875z" clip-path="url(#bf)" fill="url(#t)" filter="url(#aw)" stroke-width="1.2613"/>
  <path d="m25.55 85.391c-1.3683 0-2.4706 1.1023-2.4706 2.4706l0.0241 35.814h69.419l-0.0241-35.814c0-1.3683-1.1023-2.4706-2.4706-2.4706z" fill-opacity=".12832" stroke-width="1.216"/>
  <path d="m25.646 85.452c-1.3684 0-2.4706 1.1023-2.4706 2.4706v35.85l69.4-0.1124v-35.85c0-1.3683-1.1023-2.4706-2.4706-2.4706z" fill="url(#bj)" opacity=".074219" stroke-width="1.216"/>
  <path transform="matrix(.96415 0 0 .97418 -7.7132 6.9877)" d="m52.938 84c-0.51955 0-0.9375 0.41795-0.9375 0.9375v23.062h-11.062c-0.51955 0-0.9375 0.41795-0.9375 0.9375v6.125c0 0.51955 0.41795 0.9375 0.9375 0.9375h22.125c0.51955 0 0.9375-0.41795 0.9375-0.9375v-30.125c0-0.51955-0.41795-0.9375-0.9375-0.9375z" fill="url(#w)" filter="url(#ba)" stroke-width="1.2613"/>
  <path transform="matrix(.95217 0 0 .96415 -7.0383 8.4436)" d="m112.08 97.375v6.7188h-2.25l4.3438 7.5312 4.3438-7.5312h-2.25v-6.7188h-2.0938z" fill="url(#aa)" fill-rule="evenodd" filter="url(#bb)" opacity=".45312" stroke="#fff" stroke-width=".10372"/>
  <path d="m25.55 85.694c-1.135 0-2.0488 0.92323-2.0488 2.07l0.17046 36.702h53.42v-36.84c0-1.1468-0.7932-1.932-1.9283-1.932zm6.1662 7.7443h13.619c0.50097 0 0.90389 0.40714 0.90389 0.91325v20.824c0 0.50611-0.40292 0.91325-0.90389 0.91325h-13.619c-0.50088 0-0.90389-0.40714-0.90389-0.91325v-20.824c0-0.50611 0.40301-0.91325 0.90389-0.91325z" fill="url(#z)"/>
  <path d="m25.743 85.752c-1.135 0-2.0488 0.92323-2.0488 2.07v0.18265c0-1.1468 0.91382-2.07 2.0488-2.07h49.322c0.99317 0 1.8282 0.72931 2.0186 1.6742-0.105-1.0458-0.95489-1.857-2.0186-1.857zm5.092 29.62v0.18266c0 0.5061 0.40292 0.91323 0.90389 0.91323h13.619c0.50088 0 0.90389-0.40713 0.90389-0.91323v-0.18266c0 0.50611-0.40301 0.91324-0.90389 0.91324h-13.619c-0.50097 0-0.90389-0.40713-0.90389-0.91324z" fill="#fff" stroke-width="1.216"/>
  <path d="m25.743 85.654c-1.135 0-2.0488 1.3146-2.0488 2.4614v0.18265c0-1.1468 0.91382-1.4915 2.0488-1.4915h49.322c0.99317 0 1.6354 0.15082 1.8258 1.0958-0.105-1.0458-0.76206-2.1504-1.8258-2.1504zm5.092 30.011v0.18264c0 0.50612 0.40292 0.91326 0.90389 0.91326h13.619c0.50088 0 0.90389-0.40714 0.90389-0.91326v-0.18264c0 0.50611-0.40301 0.91324-0.90389 0.91324h-13.619c-0.50097 0-0.90389-0.40713-0.90389-0.91324z" fill="#fff" stroke-width="1.216"/>
  <path transform="matrix(.96415 0 0 .96415 -7.4239 81.994)" d="m24.694-69.481v56.656h78.1v-56.656z" clip-path="url(#bg)" fill="none" filter="url(#bc)" stroke="#000" stroke-dashoffset="1.0878" stroke-linecap="round" stroke-linejoin="round" stroke-width=".72603"/>
  <rect x="17.355" y="15.964" width="73.275" height="52.064" rx="1.1902" ry="1.1902" fill="url(#p)"/>
  <rect x="17.451" y="15.964" width="3.7111" height="51.989" rx=".89142" ry=".89142" fill="#cfdce7" opacity=".61328" stroke-width="1.216"/>
  <rect x="86.773" y="16.446" width="3.6585" height="51.55" rx=".86507" ry=".89142" fill="#cfdce7" opacity=".54688" stroke-width="1.216"/>
  <rect transform="matrix(.96415 0 0 .96415 -7.7132 8.2508)" x="26" y="63.418" width="75.092" height=".72893" fill="url(#bm)" filter="url(#ae)" stroke-width="1.2613"/>
  <path transform="matrix(.96415 0 0 .96415 -7.7132 178.76)" d="m12.375-168.28c-2.9534 0-4.375 0.36407-4.375 3.3438v0.78125c0-2.9797 1.4216-3.3125 4.375-3.3125h103.25c2.9534 0 4.375 0.33282 4.375 3.3125v-0.78125c0-2.9797-1.4216-3.3438-4.375-3.3438z" clip-path="url(#be)" fill-opacity=".35841" filter="url(#az)" stroke-width="1.2613"/>
  <g transform="matrix(.96415 0 0 .96415 -7.7132 8.2508)" fill="#b2c6d9" fill-rule="evenodd" stroke-width="1.5338">
   <path d="m32 16.124v3.9536h64v-3.9536z" opacity=".56522"/>
   <path d="m32 32.23v3.8904h64v-3.8904z" opacity=".56522"/>
   <path d="m32 48.204v4h64v-4z" opacity=".56522"/>
  </g>
  <path d="m90.051 15.964v51.877c0.17644-0.09797 0.28375-0.242 0.39164-0.38566v-51.491z" fill="#fff" stroke-width="1.216"/>
  <path d="m17.451 15.964 0.0135 51.39c0.09931 0.19272 0.24335 0.32592 0.39164 0.45347l-0.0135-51.843z" fill="#fff" stroke-width="1.216"/>
  <g stroke-width="1.2613">
   <path transform="matrix(.96415 0 0 .96415 -7.7132 8.2508)" d="m103.9 8.74-0.75 0.6875 0.9375 0.0625z" fill="url(#bn)" fill-rule="evenodd" filter="url(#l)"/>
   <path transform="matrix(-.96415 0 0 .96415 38.566 8.2508)" d="m23.911 8.7355-0.75 0.6875 0.9375 0.0625z" fill="url(#bl)" fill-rule="evenodd" filter="url(#l)"/>
   <g transform="matrix(.96415 0 0 .96415 -7.7132 8.2508)" stroke-dashoffset="4.15" stroke-linecap="round" stroke-linejoin="round">
    <rect transform="matrix(.75565 0 0 .76613 3.1456 2.6444)" x="12" y="12" width="8" height="12" rx="1.0793" ry="1.0793" clip-path="url(#bh)" fill="none" filter="url(#n)" opacity=".78516" stroke="#000" stroke-width="1.5338"/>
    <rect transform="matrix(.75565 0 0 .76613 3.1456 2.6444)" x="12" y="12" width="8" height="12" rx="1.0793" ry="1.0793" clip-path="url(#bi)" fill="url(#s)" filter="url(#n)" opacity=".78516" stroke="url(#ad)" stroke-width="1.5338"/>
    <rect transform="matrix(1.0885,0,0,1.1036,-2.18,-3.43)" x="13.897" y="18.031" width="4.3502" height="3.6759" rx=".45227" ry=".45227" fill="url(#r)" filter="url(#bd)" opacity=".78516" stroke="url(#ab)" stroke-width=".34423"/>
   </g>
  </g>
  <path d="m3.2781 15.964c-1.9827 0.10335-3.254 1.6442-3.254 4.1579v0.57246c0-2.8729 1.3706-4.1579 4.2181-4.1579 35.212-0.55327 73.556-0.26252 100.51 0 1.828 0 3.254 1.0878 3.254 3.1937v-0.57246c0-1.4881-1.493-3.1937-3.254-3.1937h-100.51c-0.35587 0-0.68088-0.01475-0.96415 0z" fill="#343434" fill-opacity=".8284" stroke-width="1.216"/>
  <path transform="matrix(-1.3393 0 0 1.3393 161.69 6.0911)" d="m118.02 8.3885 0.11049 1.1049 1.4584 1e-7c-0.0988-0.4722-0.19843-1.1811-1.5689-1.1049z" fill="url(#o)" fill-rule="evenodd" filter="url(#m)" stroke-width="1.2613"/>
  <path transform="matrix(1.2368 0 0 1.2368 -39.964 5.9754)" d="m117.12 8.6885 0.11049 1.1049h1.4584c-0.0988-0.4722-0.19843-1.1811-1.5689-1.1049z" fill="url(#q)" fill-rule="evenodd" filter="url(#m)" opacity=".86141" stroke-width="1.2613"/>
 </g>
 <use transform="translate(-20.015 15.964)" width="100%" height="100%" xlink:href="#x"/>
</svg>